<?xml version="1.0" encoding="UTF-8" standalone="no"?>
<!-- Created with Inkscape (http://www.inkscape.org/) -->

<svg
   width="1080"
   height="1080"
   viewBox="0 0 285.74999 285.75"
   version="1.1"
   id="svg1"
   xmlns:inkscape="http://www.inkscape.org/namespaces/inkscape"
   xmlns:sodipodi="http://sodipodi.sourceforge.net/DTD/sodipodi-0.dtd"
   xmlns="http://www.w3.org/2000/svg"
   xmlns:svg="http://www.w3.org/2000/svg">
  <sodipodi:namedview
     id="namedview1"
     pagecolor="#ffffff"
     bordercolor="#000000"
     borderopacity="0"
     inkscape:showpageshadow="2"
     inkscape:pageopacity="0.0"
     inkscape:pagecheckerboard="0"
     inkscape:deskcolor="#d1d1d1"
     inkscape:document-units="mm" />
  <defs
     id="defs1" />
  <path
     style="fill:#c2e4eb;stroke-width:0.667013"
     d="m 148.35883,284.6886 c -1.18714,-0.80991 -5.93292,-8.86148 -9.12699,-15.48024 -11.30766,-23.43276 -12.96182,-48.3087 -4.85839,-73.06646 0.95473,-2.91908 1.99368,-5.90753 2.30726,-6.64128 0.31289,-0.73303 1.23544,-2.98488 2.04803,-5.00269 1.59122,-3.94908 2.81645,-6.73175 5.72874,-13.0067 1.02088,-2.20106 2.10041,-4.5541 2.39739,-5.22903 0.63826,-1.45176 1.27119,-0.8707 -15.37762,-14.09606 -9.78332,-7.77105 -12.43423,-9.57413 -13.1735,-8.96053 -0.50956,0.42195 -0.92613,1.01016 -0.92613,1.30516 0,0.295 -1.00479,2.73475 -2.23379,5.42123 -1.22828,2.68648 -3.05353,7.13564 -4.05563,9.88719 -1.00122,2.75138 -2.06788,5.60288 -2.36861,6.33663 -1.02447,2.5009 -2.67808,8.66053 -4.01487,14.96068 -1.73782,8.18942 -1.75572,17.97238 -0.0358,24.72648 4.32456,17.07413 -10.168602,-7.52397 -15.916652,-27.01408 -2.45119,-8.31153 -2.98183,-12.97791 -2.95842,-26.01339 0.0182,-11.28354 0.24136,-14.21424 1.4321,-19.00971 2.04534,-8.23626 5.30054,-17.85509 8.52589,-25.19401 0.60074,-1.36773 1.33018,-3.08732 1.62162,-3.82107 0.28963,-0.73303 5.783272,-11.989568 12.205892,-25.012893 16.12943,-32.705456 17.22844,-35.188295 21.11244,-47.691344 2.48446,-7.997755 3.32102,-18.356056 1.96597,-24.3458347 -1.298,-5.7375077 -1.38919,-6.5141656 -0.80454,-6.87513995 1.1943,-0.73839726 10.54316,9.45434565 13.25967,14.45792565 0.42551,0.781307 1.83329,3.372849 3.13058,5.757532 5.95242,10.941331 8.69218,25.15986 7.22666,37.504144 -0.44698,3.768508 -1.11923,8.052643 -1.4911,9.519961 -0.37367,1.467855 -0.98693,3.868809 -1.36595,5.336127 -0.9011,3.501578 -5.03684,13.792832 -7.23646,18.009384 -2.65734,5.093869 -6.04236,11.150508 -7.26956,13.006698 -0.60609,0.91718 -1.8249,3.11914 -2.7081,4.89345 l -1.60554,3.22588 2.07395,1.77716 c 2.84989,2.44136 4.13002,3.46081 7.21288,5.74358 1.4607,1.08168 2.80483,2.13832 2.98827,2.34911 0.18419,0.21097 3.18513,2.62623 6.67025,5.36741 3.48513,2.74119 6.91841,5.51099 7.62962,6.15516 1.81239,1.64128 2.16711,1.50362 3.41111,-1.33019 0.60431,-1.37667 1.85136,-4.15218 2.77195,-6.16981 0.92075,-2.01781 2.21681,-4.86931 2.88028,-6.33663 2.46836,-5.45896 5.02163,-13.38752 6.76643,-21.01089 1.10492,-4.831049 1.06379,-16.840462 -0.0716,-20.880551 -1.12279,-3.988239 -0.3093,-5.177719 2.01084,-2.944291 12.08827,11.635031 19.22157,25.990862 21.37186,43.010472 0.59716,4.72324 0.59716,7.86599 -0.002,13.34032 -0.73303,6.70261 -1.03698,8.28239 -2.91532,15.16539 -0.98334,3.60117 -5.1257,14.16328 -6.59785,16.82152 -0.65436,1.18179 -2.29028,4.18258 -3.63603,6.67006 -1.34628,2.48749 -2.97021,5.4232 -3.60973,6.52383 -1.28908,2.21948 -4.51477,8.06211 -7.54703,13.67375 -3.57524,6.61662 -12.75568,24.96678 -14.35674,28.69737 -0.86176,2.00905 -1.95933,4.55304 -2.43777,5.65367 -5.20455,11.97061 -6.65006,16.46017 -10.25783,31.85942 -1.55905,6.6529 -0.74733,20.88306 1.46608,25.68371 0.75447,1.6359 -0.0536,3.11216 -1.24438,2.29331 z"
     id="path2" />
</svg>
